<svg width="391" height="418" viewBox="0 0 391 418" fill="none" xmlns="http://www.w3.org/2000/svg">
<path d="M218.73 225.03C209.17 227.33 190.45 228.3 181 226.98C153.51 223.14 131.24 206.86 121.81 183.7C116.56 170.81 116.12 165.23 115.8 107.25L115.5 54H134.25H153V104.54C153 159.23 153.45 165.04 158.52 175.03C161.74 181.39 170.7 189.34 177.75 192.11C186.09 195.39 203.93 195.38 212.28 192.1C223.69 187.63 231.38 179.6 235.19 168.21C237.38 161.65 237.43 160.28 237.78 107.75L238.13 54H275.12L274.74 110.25C274.37 163.66 274.24 166.87 272.26 173.8C264.46 201.07 246.4 218.35 218.73 225.03ZM89 394.92V417H79V353.89L83.75 354.2L88.5 354.5L123.5 398.12L124.09 376.31C124.41 364.31 124.75 354.39 124.84 354.25C124.93 354.11 127.25 354 130 354H135V417H130.63C129.72 417 128.97 417 128.25 416.87C124.83 416.23 121.97 412.62 105.55 392C97.4399 381.83 90.4 373.35 89.91 373.17C89.38 372.97 89 382.15 89 394.92ZM391 408.04V417H343V354H390.11L389.5 362.5L371.21 362.77L352.92 363.05L353.21 371.77L353.5 380.5L385 381.05V389L372.75 389.2C366.01 389.31 358.92 389.42 357 389.45L353.5 389.5V407.5L372.25 407.77L391 408.04ZM42.93 414.44C38.65 416.77 36.06 417.42 30.04 417.69C18.7 418.2 10.66 414.63 5.31996 406.7C0.759964 399.94 -0.150031 393.93 0.199969 372.84L0.499956 354.5L11 353.9V373.98C11 395.35 11.6099 398.83 16.2399 403.75C19.4799 407.21 27.38 409.24 32.34 407.91C37.8 406.44 40.67 404.24 43.29 399.5C45.34 395.8 45.52 393.96 45.82 374.75L46.14 354H56V374.87C56 397.16 55.42 400.71 50.6 408.01C49.32 409.96 45.89 412.83 42.93 414.44ZM292 392V417H287C284.25 417 281.99 416.89 281.97 416.75C281.96 416.61 281.85 402.44 281.72 385.25L281.5 354H327V363H292V383H324V392H292ZM232 408.05V417H192V354H201.97L202.23 380.75L202.5 407.5L232 408.05ZM168 354V417H158V354H168ZM258 354V417H248V354H258Z" fill="white"/>
<path d="M174.5 293.53C170.65 296.36 164.63 301.57 161.13 305.09L154.76 311.5L155.44 305.11C155.82 301.6 157.03 296.32 158.13 293.37C160.45 287.19 167.77 277.01 172.15 273.89C173.8 272.72 174.78 271.41 174.33 270.98C173.87 270.56 167.42 267.65 160 264.52C152.58 261.38 142.45 256.79 137.5 254.32C101.75 236.42 74.85 206.58 64.17 173C59.47 158.19 58.49 151.16 58.6 133C58.69 118.41 59.02 115.34 61.4 106.5C65.8 90.19 74.71 71.6 82.49 62.5L85.91 58.5L82.07 67.5C69.15 97.8 67.04 126.64 75.59 156.5C83.92 185.65 104 211.58 131.55 228.75C142.04 235.28 146.63 237.54 163.5 244.44C171.2 247.59 181.36 251.97 186.08 254.17L194.66 258.17L201.58 255.01C205.39 253.27 212.92 250.07 218.33 247.9C223.74 245.73 233.19 241.66 239.33 238.85C286.22 217.43 314.26 179.8 319.2 131.68C321.36 110.65 316.13 83.14 306.24 63.51C302.61 56.31 305.81 59.44 312.1 69.26C319.28 80.45 325.33 93.68 328.66 105.5C331.3 114.83 331.49 116.74 331.49 134C331.5 148.57 331.1 154.2 329.63 160.5C323.63 186.14 310.65 208.64 291.13 227.21C273.82 243.68 255.32 254.6 222.74 267.54C219.02 269.01 215.75 270.59 215.47 271.05C215.19 271.51 217.21 273.99 219.97 276.57C226.59 282.76 230.61 289 233.02 296.81C234.96 303.08 235.62 309 234.37 309C234.03 309 229.89 305.56 225.17 301.35C216.3 293.44 206.88 286.86 198.77 282.92L194.1 280.65L187.8 284.51C184.34 286.63 178.35 290.69 174.5 293.53ZM297.9 281.95C294.38 282.52 289.7 282.95 287.5 282.91C282.02 282.81 270.98 280.35 265.54 278.02C258.77 275.11 250 269.22 250 267.56C250 264.45 266.43 255.27 277.08 252.43C285.8 250.11 300.41 250.31 309.15 252.86C317.21 255.21 327.42 260.09 331.5 263.54C334.45 266.03 334.47 266.1 332.5 267.6C324.54 273.71 309.02 280.14 297.9 281.95ZM324.43 239.96C320.62 240.51 316.38 240.91 315 240.84C307.98 240.52 299 238.09 299 236.53C299 234.21 306.7 223.47 312.25 218.04C322.83 207.69 334.47 202.26 350.93 200.01C359.05 198.9 373.38 199.98 375.24 201.84C376.61 203.21 368.03 214.74 360.02 222.3C348.93 232.76 338.53 237.92 324.43 239.96ZM116.22 280.45C102.93 283.67 91.42 282.96 78.08 278.09C70.06 275.16 56 267.54 56 266.13C56 264.8 64.64 259.05 70.59 256.42C82.81 251.02 100.25 249.39 112.54 252.52C120.5 254.54 131.6 260.05 136.51 264.42L140.5 267.98L138 270.1C134.09 273.42 122.52 278.92 116.22 280.45ZM85.92 238.83C83.13 239.47 76.94 239.97 72.17 239.94C55.96 239.83 43.02 234.5 30.44 222.75C22.3 215.15 13.29 203.3 14.64 201.97C16.33 200.28 29.51 198.85 37 199.53C52.31 200.93 66.02 207.06 76.71 217.3C82.5 222.83 91 234.35 91 236.65C91 237.2 88.72 238.18 85.92 238.83ZM346.22 187.17C343.1 188.21 338.77 189.33 336.62 189.68L332.69 190.3L333.26 184.4C334.6 170.54 341.32 156.76 352 145.99C361.15 136.76 373.6 130.08 384.81 128.4L389.31 127.73L388.71 132.76C387.82 140.3 383.4 152.63 378.78 160.45C371.52 172.73 359.11 182.92 346.22 187.17ZM56.72 184.25C57.26 189.81 57.2 190 54.89 189.93C51.34 189.82 41.08 186.66 36.4 184.24C18.75 175.09 6.87001 158.48 1.54001 135.53C0.690009 131.87 0 128.68 0 128.44C0 127.32 5.59001 128.22 12.7 130.48C35.89 137.84 54.42 160.48 56.72 184.25ZM48.5 126.44C47.69 130.25 46.68 133.7 46.26 134.11C45.08 135.25 35.55 128.39 30.21 122.54C24.78 116.6 18.98 106.18 16.61 98.1C14.14 89.7 13.6 75.86 15.37 66.11C16.2 61.49 17.35 57.25 17.91 56.69C19.38 55.22 25.99 60.09 33.21 67.95C47.23 83.24 52.99 105.24 48.5 126.44ZM350.47 131.02C348.09 132.66 345.68 134 345.11 134C343.39 134 340.87 124.02 340.29 114.94C339.13 96.75 345.33 79.98 358.22 66.4C364.85 59.43 370.51 55.18 371.66 56.32C371.92 56.58 372.81 59.65 373.64 63.15C375.53 71.09 375.75 88.72 374.04 96C371.17 108.24 360.48 124.14 350.47 131.02ZM65.57 72.24C63.61 75.13 61.19 78.56 60.18 79.85L58.34 82.2L55.76 79.12C45.57 67.02 42.4 44.92 48.35 27.45C52.47 15.32 61.47 0 64.47 0C66.17 0 72.6 13.34 74.69 21.21C76.71 28.86 76.89 43.43 75.05 51C73.29 58.26 69.93 65.78 65.57 72.24ZM338.39 72.73C336.38 76.71 334.17 80.44 333.48 81.02C331.61 82.57 324.85 74.24 320.06 64.5C313.47 51.12 311.6 37.28 314.52 23.5C316.08 16.09 323.21 0 324.92 0C325.48 0 327.66 2.36 329.77 5.25C346.16 27.72 349.18 51.34 338.39 72.73Z" fill="#41BD7F"/>
</svg>
